# xmcd CD database file
#
# Track frame offsets:
#	150
#	14328
#	28752
#	38546
#	53188
#	67834
#	82811
#	93048
#	107321
#	120251
#	131608
#	145650
#	160653
#	174118
#	188828
#	200091
#	212649
#	225912
#	238731
#	251246
#	266142
#	280071
#	292906
#	303978
#	311045
#	324432
#
# Disc length: 4494 seconds
#
# Revision: 0
# Processed by: cddbd v1.5.1PL2 Copyright (c) Steve Scherf et al.
# Submitted via: CDex 1.51
#
DISCID=51118c1a
DTITLE=Peggy Lee - Blues in the night
DYEAR=1900
DGENRE=Jazz
TTITLE0=Don't smoke in the bed
TTITLE1=Why don't you do right
TTITLE2=Would you dance with a stranger
TTITLE3=Blues inthe night
TTITLE4=I got it bad and that ain't good
TTITLE5=Lover
TTITLE6=Let's do it
TTITLE7=Tonight you belong to me
TTITLE8=Bless you
TTITLE9=I love you but I don't like you
TTITLE10=Stormy weather
TTITLE11=I don't know enough about you
TTITLE12=Golden earrings
TTITLE13=How long has this been going on
TTITLE14=They can't take that away from me
TTITLE15=Watermelon weather
TTITLE16=Them there eyes
TTITLE17=Manana is good enough for me
TTITLE18=You was
TTITLE19=The way you look tonight
TTITLE20=How deep is the ocean
TTITLE21=Elmer's tune
TTITLE22=Merry go runaround
TTITLE23=If Icould be with you one hour tonight
TTITLE24=Just one of these things
TTITLE25=The old master painter
EXTD=
EXTT0=
EXTT1=
EXTT2=
EXTT3=
EXTT4=
EXTT5=
EXTT6=
EXTT7=
EXTT8=
EXTT9=
EXTT10=
EXTT11=
EXTT12=
EXTT13=
EXTT14=
EXTT15=
EXTT16=
EXTT17=
EXTT18=
EXTT19=
EXTT20=
EXTT21=
EXTT22=
EXTT23=
EXTT24=
EXTT25=
PLAYORDER=
